<svg xmlns="http://www.w3.org/2000/svg" width="21" height="24" viewBox="0 0 21 24"><title>menu icon</title><desc>an icon to represent main navigation</desc><path d="M20.545 18v1.714q0 0.348-0.254 0.603t-0.603 0.254h-18.857q-0.348 0-0.603-0.254t-0.254-0.603v-1.714q0-0.348 0.254-0.603t0.603-0.254h18.857q0.348 0 0.603 0.254t0.254 0.603zM20.545 11.143v1.714q0 0.348-0.254 0.603t-0.603 0.254h-18.857q-0.348 0-0.603-0.254t-0.254-0.603v-1.714q0-0.348 0.254-0.603t0.603-0.254h18.857q0.348 0 0.603 0.254t0.254 0.603zM20.545 4.286v1.714q0 0.348-0.254 0.603t-0.603 0.254h-18.857q-0.348 0-0.603-0.254t-0.254-0.603v-1.714q0-0.348 0.254-0.603t0.603-0.254h18.857q0.348 0 0.603 0.254t0.254 0.603z" fill="#000000" /></svg>
